<svg width="64" height="64" xmlns="http://www.w3.org/2000/svg">
  <!-- Mew - Psychic (Cute Legendary) -->
  <defs>
    <radialGradient id="mewGlow">
      <stop offset="0%" style="stop-color:#ff69b4;stop-opacity:1" />
      <stop offset="100%" style="stop-color:#e91e63;stop-opacity:0.6" />
    </radialGradient>
  </defs>
  <!-- Glow aura -->
  <circle cx="32" cy="32" r="28" fill="url(#mewGlow)" opacity="0.4"/>
  <!-- Body -->
  <ellipse cx="32" cy="36" rx="12" ry="14" fill="#ff69b4"/>
  <!-- Head -->
  <circle cx="32" cy="24" r="13" fill="#ff69b4"/>
  <!-- Ears (cat-like, pointed) -->
  <ellipse cx="24" cy="16" rx="5" ry="8" fill="#ff69b4" transform="rotate(-15 24 16)"/>
  <ellipse cx="40" cy="16" rx="5" ry="8" fill="#ff69b4" transform="rotate(15 40 16)"/>
  <!-- Eyes (large, cute) -->
  <ellipse cx="28" cy="23" rx="3" ry="4" fill="#00bcd4"/>
  <ellipse cx="36" cy="23" rx="3" ry="4" fill="#00bcd4"/>
  <circle cx="28" cy="22" r="1.5" fill="white"/>
  <circle cx="36" cy="22" r="1.5" fill="white"/>
  <!-- Feet (cute) -->
  <ellipse cx="26" cy="48" rx="4" ry="5" fill="#ff69b4"/>
  <ellipse cx="38" cy="48" rx="4" ry="5" fill="#ff69b4"/>
  <!-- Tail (long, flowing) -->
  <path d="M 40 40 Q 48 38 50 32 Q 52 28 48 24" stroke="#ff69b4" stroke-width="4" fill="none" stroke-linecap="round"/>
  <circle cx="48" cy="24" r="3" fill="#ff69b4"/>
  <!-- Sparkles -->
  <circle cx="20" cy="28" r="1.5" fill="#ffeb3b" opacity="0.8"/>
  <circle cx="44" cy="28" r="1.5" fill="#ffeb3b" opacity="0.8"/>
  <circle cx="32" cy="12" r="1.5" fill="#ffeb3b" opacity="0.8"/>
</svg>
