<svg width="120" height="120" xmlns="http://www.w3.org/2000/svg">
  <!-- Articuno - Ice/Flying Legendary -->
  <!-- Body -->
  <ellipse cx="60" cy="65" rx="22" ry="28" fill="#00bcd4"/>
  <!-- Wings (majestic, spread) -->
  <path d="M 25 55 Q 5 45 10 70 Q 15 60 25 62 Z" fill="#4dd0e1" opacity="0.8"/>
  <path d="M 95 55 Q 115 45 110 70 Q 105 60 95 62 Z" fill="#4dd0e1" opacity="0.8"/>
  <!-- Wing details (icy) -->
  <line x1="10" y1="55" x2="5" y2="50" stroke="white" stroke-width="2" opacity="0.8"/>
  <line x1="10" y1="62" x2="5" y2="67" stroke="white" stroke-width="2" opacity="0.8"/>
  <line x1="110" y1="55" x2="115" y2="50" stroke="white" stroke-width="2" opacity="0.8"/>
  <line x1="110" y1="62" x2="115" y2="67" stroke="white" stroke-width="2" opacity="0.8"/>
  <!-- Head -->
  <ellipse cx="60" cy="42" rx="18" ry="20" fill="#00bcd4"/>
  <!-- Crest (3 feathers) -->
  <ellipse cx="50" cy="25" rx="6" ry="15" fill="#4dd0e1" transform="rotate(-15 50 25)"/>
  <ellipse cx="60" cy="22" rx="6" ry="18" fill="#4dd0e1"/>
  <ellipse cx="70" cy="25" rx="6" ry="15" fill="#4dd0e1" transform="rotate(15 70 25)"/>
  <!-- Tail feathers -->
  <ellipse cx="60" cy="92" rx="10" ry="20" fill="#4dd0e1" opacity="0.7"/>
  <!-- Eyes -->
  <circle cx="55" cy="40" r="3" fill="white"/>
  <circle cx="65" cy="40" r="3" fill="white"/>
</svg>
