<svg width="100" height="110" xmlns="http://www.w3.org/2000/svg">
  <!-- Electabuzz - Electric (Powerful) -->
  <!-- Body (muscular) -->
  <ellipse cx="50" cy="65" rx="24" ry="30" fill="#ffeb3b"/>
  <!-- Black stripes (tiger-like) -->
  <ellipse cx="45" cy="60" rx="3" ry="20" fill="#333" opacity="0.7"/>
  <ellipse cx="55" cy="60" rx="3" ry="20" fill="#333" opacity="0.7"/>
  <!-- Head -->
  <ellipse cx="50" cy="35" rx="20" ry="22" fill="#ffeb3b"/>
  <!-- Antennae -->
  <line x1="45" y1="18" x2="40" y2="8" stroke="#333" stroke-width="3"/>
  <line x1="55" y1="18" x2="60" y2="8" stroke="#333" stroke-width="3"/>
  <circle cx="40" cy="8" r="4" fill="#ffeb3b"/>
  <circle cx="60" cy="8" r="4" fill="#ffeb3b"/>
  <!-- Eyes (intense) -->
  <ellipse cx="44" cy="32" rx="4" ry="5" fill="white"/>
  <ellipse cx="56" cy="32" rx="4" ry="5" fill="white"/>
  <circle cx="44" cy="33" r="2" fill="#333"/>
  <circle cx="56" cy="33" r="2" fill="#333"/>
  <!-- Arms (electricity charging) -->
  <ellipse cx="28" cy="60" rx="8" ry="20" fill="#ffd600" transform="rotate(-20 28 60)"/>
  <ellipse cx="72" cy="60" rx="8" ry="20" fill="#ffd600" transform="rotate(20 72 60)"/>
  <!-- Electric sparks from hands -->
  <polygon points="22,65 20,70 24,67 22,75" fill="#ffeb3b" opacity="0.8"/>
  <polygon points="78,65 80,70 76,67 78,75" fill="#ffeb3b" opacity="0.8"/>
  <!-- Tail -->
  <path d="M 50 92 L 48 105 L 52 100 L 50 110" fill="#ffd600"/>
</svg>
