<svg width="100" height="90" xmlns="http://www.w3.org/2000/svg">
  <!-- Jolteon - Electric (Spiky Eeveelution) -->
  <!-- Body -->
  <ellipse cx="50" cy="55" rx="20" ry="18" fill="#ffeb3b"/>
  <!-- Head -->
  <ellipse cx="50" cy="35" rx="18" ry="16" fill="#ffeb3b"/>
  <!-- Spiky fur (electric) -->
  <polygon points="35,35 30,28 38,33" fill="#ffd600"/>
  <polygon points="42,25 40,18 44,26" fill="#ffd600"/>
  <polygon points="50,22 50,14 52,23" fill="#ffd600"/>
  <polygon points="58,25 60,18 56,26" fill="#ffd600"/>
  <polygon points="65,35 70,28 62,33" fill="#ffd600"/>
  <!-- Body spikes -->
  <polygon points="35,50 28,48 36,52" fill="#ffd600"/>
  <polygon points="65,50 72,48 64,52" fill="#ffd600"/>
  <!-- Tail spikes -->
  <path d="M 65 60 L 75 55 L 70 62 L 80 58 L 72 67" fill="#ffd600"/>
  <!-- Eyes (sharp) -->
  <ellipse cx="44" cy="33" rx="3" ry="4" fill="#6b2d5c"/>
  <ellipse cx="56" cy="33" rx="3" ry="4" fill="#6b2d5c"/>
  <!-- Collar (white ruff) -->
  <ellipse cx="50" cy="45" rx="16" ry="8" fill="white" opacity="0.9"/>
</svg>
