<svg width="120" height="100" xmlns="http://www.w3.org/2000/svg">
  <!-- Magneton - Electric/Steel (3 Magnemites) -->
  <!-- Center Magnemite -->
  <circle cx="60" cy="50" r="18" fill="#6c757d"/>
  <circle cx="60" cy="50" r="12" fill="#b0b0b0"/>
  <!-- Eye -->
  <circle cx="60" cy="50" r="6" fill="#e91e63"/>
  <circle cx="60" cy="50" r="3" fill="white"/>
  <!-- Magnets center -->
  <rect x="38" y="45" width="10" height="10" fill="#e91e63" rx="2"/>
  <rect x="72" y="45" width="10" height="10" fill="#00bcd4" rx="2"/>
  <circle cx="43" cy="50" r="3" fill="#333"/>
  <circle cx="77" cy="50" r="3" fill="#333"/>

  <!-- Left Magnemite -->
  <circle cx="30" cy="35" r="15" fill="#6c757d"/>
  <circle cx="30" cy="35" r="10" fill="#b0b0b0"/>
  <circle cx="30" cy="35" r="5" fill="#e91e63"/>
  <!-- Magnets -->
  <rect x="12" y="32" width="8" height="6" fill="#e91e63" rx="1"/>
  <rect x="40" y="32" width="8" height="6" fill="#00bcd4" rx="1"/>

  <!-- Right Magnemite -->
  <circle cx="90" cy="35" r="15" fill="#6c757d"/>
  <circle cx="90" cy="35" r="10" fill="#b0b0b0"/>
  <circle cx="90" cy="35" r="5" fill="#e91e63"/>
  <!-- Magnets -->
  <rect x="72" y="32" width="8" height="6" fill="#e91e63" rx="1"/>
  <rect x="100" y="32" width="8" height="6" fill="#00bcd4" rx="1"/>

  <!-- Connection bolts -->
  <line x1="43" y1="40" x2="50" y2="45" stroke="#333" stroke-width="3"/>
  <line x1="77" y1="40" x2="70" y2="45" stroke="#333" stroke-width="3"/>

  <!-- Electric field -->
  <circle cx="60" cy="50" r="35" stroke="#ffeb3b" stroke-width="2" fill="none" opacity="0.3"/>
</svg>
