<svg width="120" height="130" xmlns="http://www.w3.org/2000/svg">
  <!-- Moltres - Fire/Flying Legendary -->
  <defs>
    <linearGradient id="moltresFlame" x1="0%" y1="0%" x2="100%" y2="100%">
      <stop offset="0%" style="stop-color:#ffeb3b;stop-opacity:1" />
      <stop offset="50%" style="stop-color:#ff9800;stop-opacity:1" />
      <stop offset="100%" style="stop-color:#e91e63;stop-opacity:1" />
    </linearGradient>
  </defs>
  <!-- Body -->
  <ellipse cx="60" cy="60" rx="20" ry="25" fill="#ff6b35"/>
  <!-- Flame wings (flowing) -->
  <path d="M 25 50 Q 10 40 15 65 Q 8 55 12 70 Q 20 60 25 58 Z" fill="url(#moltresFlame)" opacity="0.9"/>
  <path d="M 95 50 Q 110 40 105 65 Q 112 55 108 70 Q 100 60 95 58 Z" fill="url(#moltresFlame)" opacity="0.9"/>
  <!-- Head -->
  <circle cx="60" cy="40" r="16" fill="#ff9800"/>
  <!-- Flame crest -->
  <ellipse cx="55" cy="25" rx="8" ry="18" fill="#ffeb3b" opacity="0.9" transform="rotate(-20 55 25)"/>
  <ellipse cx="60" cy="20" rx="8" ry="20" fill="#ffeb3b" opacity="0.9"/>
  <ellipse cx="65" cy="25" rx="8" ry="18" fill="#ffeb3b" opacity="0.9" transform="rotate(20 65 25)"/>
  <!-- Flame tail (spectacular) -->
  <ellipse cx="60" cy="90" rx="15" ry="25" fill="url(#moltresFlame)" opacity="0.9"/>
  <ellipse cx="55" cy="100" rx="12" ry="20" fill="#ffeb3b" opacity="0.8"/>
  <ellipse cx="65" cy="100" rx="12" ry="20" fill="#ffeb3b" opacity="0.8"/>
  <!-- Beak -->
  <polygon points="60,43 56,48 64,48" fill="#ff9800"/>
</svg>
